<?xml version="1.0" encoding="UTF-8"?>
<svg width="360px" height="500px" viewBox="0 0 360 500" version="1.1" xmlns="http://www.w3.org/2000/svg" xmlns:xlink="http://www.w3.org/1999/xlink">
    <!-- Generator: Sketch 63.1 (92452) - https://sketch.com -->
    <title>A3</title>
    <desc>Created with Sketch.</desc>
    <g id="A3" stroke="none" stroke-width="1" fill="none" fill-rule="evenodd">
        <g id="Group-2" transform="translate(0.000000, 250.000000)" fill="#552583">
            <rect id="Rectangle" x="0" y="0" width="360" height="250"></rect>
        </g>
        <rect id="Rectangle" fill="#FDB927" x="0" y="0" width="360" height="250"></rect>
        <rect id="Rectangle" fill="#552583" x="0" y="0" width="8" height="250"></rect>
        <rect id="Rectangle" fill="#FFFFFF" x="8" y="0" width="8" height="500"></rect>
        <rect id="Rectangle" fill="#FFFFFF" x="344" y="0" width="8" height="500"></rect>
        <rect id="Rectangle" fill="#FDB927" x="352" y="250" width="8" height="250"></rect>
        <rect id="Rectangle" fill="#552583" x="352" y="0" width="8" height="250"></rect>
        <rect id="Rectangle" fill="#FDB927" x="0" y="250" width="8" height="250"></rect>
        <path d="M168,147 L168,130.255452 L141.947242,130.255452 L158.59952,111.635514 C161.91207,107.974039 164.306954,104.558152 165.784173,101.38785 C167.261391,98.2175493 168,94.3997923 168,89.9345794 L168,89.9345794 L168,77.6105919 C168,66.536864 161.330136,61 147.990408,61 L147.990408,61 L131.741007,61 C118.580336,61 112,66.536864 112,77.6105919 L112,77.6105919 L112,90.470405 L135.501199,90.470405 L135.501199,80.6915888 C135.501199,78.7268951 136.620304,77.7445483 138.858513,77.7445483 L138.858513,77.7445483 L141.544365,77.7445483 C143.782574,77.7445483 144.901679,78.7268951 144.901679,80.6915888 L144.901679,80.6915888 L144.901679,89.8006231 C144.901679,92.7476636 144.454037,95.2258567 143.558753,97.2352025 C142.663469,99.2445483 140.872902,101.633437 138.18705,104.401869 L138.18705,104.401869 L112.671463,131.728972 L112.671463,147 L168,147 Z M237.832998,147 L237.832998,131.595016 L247,131.595016 L247,114.582555 L237.832998,114.582555 L237.832998,97.5700935 L215.724346,97.5700935 L215.724346,114.582555 L201.434608,114.582555 L236.215292,61 L212.488934,61 L180,110.831776 L180,131.595016 L215.724346,131.595016 L215.724346,147 L237.832998,147 Z" id="24" stroke="#FFFFFF" stroke-width="3" fill="#552583" fill-rule="nonzero"></path>
        <path d="M188.422897,440 C201.474299,440 208,434.463136 208,423.389408 L208,423.389408 L208,409.993769 C208,406.242991 207.556075,403.273624 206.668224,401.08567 C205.780374,398.897715 204.093458,397.267913 201.607477,396.196262 C205.869159,393.874351 208,388.82866 208,381.05919 L208,381.05919 L208,370.610592 C208,359.536864 201.474299,354 188.422897,354 L188.422897,354 L170.577103,354 C157.525701,354 151,359.536864 151,370.610592 L151,370.610592 L151,381.05919 C151,388.82866 153.086449,393.874351 157.259346,396.196262 C153.086449,398.071651 151,402.67082 151,409.993769 L151,409.993769 L151,423.389408 C151,434.463136 157.525701,440 170.577103,440 L170.577103,440 L188.422897,440 Z M182.542553,389 L176.457447,389 C174.152482,389 173,388.06383 173,386.191489 L173,386.191489 L173,373.808511 C173,371.93617 174.152482,371 176.457447,371 L176.457447,371 L182.542553,371 C184.847518,371 186,371.93617 186,373.808511 L186,373.808511 L186,386.191489 C186,388.06383 184.847518,389 182.542553,389 L182.542553,389 Z M182.542553,423 L176.457447,423 C174.152482,423 173,422.022222 173,420.066667 L173,420.066667 L173,405.933333 C173,403.977778 174.152482,403 176.457447,403 L176.457447,403 L182.542553,403 C184.847518,403 186,403.977778 186,405.933333 L186,405.933333 L186,420.066667 C186,422.022222 184.847518,423 182.542553,423 L182.542553,423 Z" id="8" stroke="#FFFFFF" stroke-width="3" fill="#FDB927" fill-rule="nonzero"></path>
        <path d="M150.925,235 L144.625,218.6 L150.875,202.9 L141.475,202.9 L135.525,218.6 L141.525,235 L150.925,235 Z M135.475,235 L135.475,202.9 L126.725,202.9 L126.725,235 L135.475,235 Z M170.325,235 C175.225,235 177.675,232.933333 177.675,228.8 L177.675,228.8 L177.675,209.1 C177.675,204.966667 175.225,202.9 170.325,202.9 L170.325,202.9 L162.925,202.9 C158.025,202.9 155.575,204.966667 155.575,209.1 L155.575,209.1 L155.575,228.8 C155.575,232.933333 158.025,235 162.925,235 L162.925,235 L170.325,235 Z M167.675,228.75 L165.575,228.75 C164.741667,228.75 164.325,228.383333 164.325,227.65 L164.325,227.65 L164.325,210.25 C164.325,209.516667 164.741667,209.15 165.575,209.15 L165.575,209.15 L167.675,209.15 C168.508333,209.15 168.925,209.516667 168.925,210.25 L168.925,210.25 L168.925,227.65 C168.925,228.383333 168.508333,228.75 167.675,228.75 L167.675,228.75 Z M198.725,235 C203.625,235 206.075,232.933333 206.075,228.8 L206.075,228.8 L206.075,224 C206.075,222.6 205.908333,221.491667 205.575,220.675 C205.241667,219.858333 204.608333,219.25 203.675,218.85 C205.275,217.983333 206.075,216.1 206.075,213.2 L206.075,213.2 L206.075,209.1 C206.075,204.966667 203.625,202.9 198.725,202.9 L198.725,202.9 L184.025,202.9 L184.025,235 L198.725,235 Z M196.225,216.05 L192.625,216.05 L192.625,208.65 L196.225,208.65 C197.058333,208.65 197.475,209.016667 197.475,209.75 L197.475,209.75 L197.475,214.95 C197.475,215.683333 197.058333,216.05 196.225,216.05 L196.225,216.05 Z M196.225,229.25 L192.625,229.25 L192.625,221.8 L196.225,221.8 C197.058333,221.8 197.475,222.166667 197.475,222.9 L197.475,222.9 L197.475,228.15 C197.475,228.883333 197.058333,229.25 196.225,229.25 L196.225,229.25 Z M232.025,235 L232.025,228.75 L221.075,228.75 L221.075,221.95 L230.125,221.95 L230.125,215.7 L221.075,215.7 L221.075,209.15 L231.575,209.15 L231.575,202.9 L212.325,202.9 L212.325,235 L232.025,235 Z" id="KOBE" stroke="#FFFFFF" stroke-width="2" fill="#552583" fill-rule="nonzero"></path>
        <path d="M112.775,298 C117.675,298 120.125,295.933333 120.125,291.8 L120.125,291.8 L120.125,287 C120.125,285.6 119.958333,284.491667 119.625,283.675 C119.291667,282.858333 118.658333,282.25 117.725,281.85 C119.325,280.983333 120.125,279.1 120.125,276.2 L120.125,276.2 L120.125,272.1 C120.125,267.966667 117.675,265.9 112.775,265.9 L112.775,265.9 L98.075,265.9 L98.075,298 L112.775,298 Z M110.275,279.05 L106.675,279.05 L106.675,271.65 L110.275,271.65 C111.108333,271.65 111.525,272.016667 111.525,272.75 L111.525,272.75 L111.525,277.95 C111.525,278.683333 111.108333,279.05 110.275,279.05 L110.275,279.05 Z M110.275,292.25 L106.675,292.25 L106.675,284.8 L110.275,284.8 C111.108333,284.8 111.525,285.166667 111.525,285.9 L111.525,285.9 L111.525,291.15 C111.525,291.883333 111.108333,292.25 110.275,292.25 L110.275,292.25 Z M135.125,298 L135.125,286.6 L135.675,286.6 L140.775,298 L150.175,298 L144.275,286.25 C147.141667,285.516667 148.575,283.566667 148.575,280.4 L148.575,280.4 L148.575,272.1 C148.575,267.966667 146.125,265.9 141.225,265.9 L141.225,265.9 L126.375,265.9 L126.375,298 L135.125,298 Z M138.575,280.65 L135.125,280.65 L135.125,272.15 L138.575,272.15 C139.408333,272.15 139.825,272.516667 139.825,273.25 L139.825,273.25 L139.825,279.55 C139.825,280.283333 139.408333,280.65 138.575,280.65 L138.575,280.65 Z M170.175,298 L170.175,287.5 L178.525,265.9 L169.625,265.9 L165.725,279.45 L161.525,265.9 L152.575,265.9 L161.425,287.6 L161.425,298 L170.175,298 Z M189.625,298 L190.675,293.2 L198.375,293.2 L199.375,298 L208.175,298 L199.925,265.9 L189.275,265.9 L181.025,298 L189.625,298 Z M197.025,287 L192.025,287 L194.575,275.45 L197.025,287 Z M220.675,298 L220.675,281.15 L227.825,298 L235.325,298 L235.325,265.9 L227.325,265.9 L227.325,283.05 L220.175,265.9 L212.675,265.9 L212.675,298 L220.675,298 Z M254.975,298 L254.975,272.15 L261.175,272.15 L261.175,265.9 L240.075,265.9 L240.075,272.15 L246.225,272.15 L246.225,298 L254.975,298 Z" id="BRYANT" stroke="#FFFFFF" stroke-width="2" fill="#FDB927" fill-rule="nonzero"></path>
        <rect id="Rectangle" fill="#552583" x="128" y="217" width="14" height="4"></rect>
    </g>
</svg>