<svg id="Layer_1" data-name="Layer 1" xmlns="http://www.w3.org/2000/svg" viewBox="0 0 2626.95 2297.31"><defs><style>.cls-1{fill:#006882;}.cls-2{fill:#414042;}.cls-3{fill:#ff0500;}.cls-4{fill:#ff9700;}.cls-5{fill:#3ac5ef;}.cls-6{fill:#014b82;}.cls-7{fill:#f70426;}</style></defs><title>Home_ Strategy_Software_Platform_Illustration</title><path class="cls-1" d="M1439.17,1037.52q-37.89-10.65-74.9-24.1-18.49-6.74-36.72-14.15-4.46-1.82-8.89-3.67c-5.49-2.27,4.38,1.9-1.08-.45l-3.21-1.37q-9.64-4.14-19.2-8.47a1053.22,1053.22,0,0,1-136.53-74.48q-18.37-11.85-36.23-24.47-9.29-6.55-18.42-13.32-4.23-3.12-8.41-6.28l-4.18-3.18-2.78-2.13c2.25,1.74,2.38,1.85.41.31-8.48-6.57-17.42-8.5-27.27-3.51q-161.88,82-326,159.38-20.52,9.67-41.06,19.28c-7.43,3.47-13,9.41-14.32,17.48-1.71,10.11-3.06,20.28-4.34,30.45A847.35,847.35,0,0,0,669.41,1195c.32,57,6.28,115.14,23.36,169.75,3.51,11.22,15.84,19.54,27.68,15.71,11.27-3.65,19.48-15.65,15.72-27.68Q730,1333.15,725.78,1313q-2-9.67-3.68-19.44-.83-4.86-1.56-9.75c-.25-1.62-.47-3.24-.71-4.87q-.52-3.8.13,1.12l-.42-3.25a677.36,677.36,0,0,1-5.11-78.74,861.09,861.09,0,0,1,7.21-117.82c.45-3.54-.9,6.56-.42,3.11.12-.9.24-1.8.37-2.7.2-1.42.4-2.85.61-4.27.33-2.24.67-4.49,1-6.73.3-1.88.61-3.75.95-5.62l-10.34,13.45q145.63-68,289.55-139.63,40.62-20.22,81.08-40.71l-27.26-3.52a1090.3,1090.3,0,0,0,284.43,159.29q42.16,15.86,85.56,28.05c11.33,3.18,25-3.92,27.68-15.72,2.72-12-3.59-24.26-15.71-27.68Z" transform="translate(-331.12 -96.83)"/><path class="cls-1" d="M787.9,1672.43c21.74,37.79,52.3,70.67,84.55,99.7a683.58,683.58,0,0,0,112.29,82.33,475.53,475.53,0,0,0,63.51,31.11c11,4.37,25.18-4.76,27.67-15.71,3-13-4-23-15.71-27.68l-3.37-1.36c-.64-.26-4.5-1.86-.73-.29s-.13-.07-.76-.34l-3.47-1.54q-6.57-2.94-13-6.13c-8.73-4.29-17.32-8.87-25.77-13.67a630.82,630.82,0,0,1-53.88-34.48q-6.69-4.75-13.27-9.68c-2.09-1.57-4.18-3.16-6.26-4.74-4.18-3.18,2.84,2.23.19.14q-2.18-1.69-4.34-3.4-13-10.28-25.41-21.18a538.64,538.64,0,0,1-46.87-46.15q-5.81-6.51-11.36-13.25c-1.8-2.2-3.56-4.43-5.33-6.65-1.24-1.58-.63-2.37,1,1.22-.68-1.53-2.33-3.08-3.33-4.44a277.11,277.11,0,0,1-17.42-26.52c-5.87-10.21-20.62-14.62-30.78-8.07-10.31,6.64-14.36,19.86-8.08,30.78Z" transform="translate(-331.12 -96.83)"/><path class="cls-1" d="M714.47,1381.3c11.77,0,23-10.35,22.5-22.5s-9.89-22.5-22.5-22.5c-11.77,0-23,10.35-22.5,22.5s9.89,22.5,22.5,22.5Z" transform="translate(-331.12 -96.83)"/><path class="cls-1" d="M1312.44,1653.46c4.15-5.38-1.43,1.77-2.42,3-1.57,1.94-3.15,3.86-4.76,5.77q-5.35,6.4-11,12.59-11.25,12.42-23.34,24.07a652.09,652.09,0,0,1-51.31,44.37c-4.44,3.46,3.85-2.91-.64.48l-2.61,2q-3.27,2.48-6.57,4.92-7.26,5.37-14.64,10.57-14.72,10.35-29.87,20-28.14,17.94-57.7,33.49-16,8.37-32.35,15.93c-5.21,2.4-10.47,4.71-15.75,7-1.36.59-3.7,1,1.5-.63-1.53.47-3,1.25-4.5,1.86-2.74,1.12-5.49,2.21-8.25,3.29-10.93,4.26-19.73,15.28-15.72,27.68,3.44,10.61,15.94,20.29,27.68,15.71A731.42,731.42,0,0,0,1181.84,1824c41.34-25.86,80.87-55.38,116.33-88.91a503,503,0,0,0,53.13-58.92c3.3-4.29,3.63-12.4,2.27-17.33-1.44-5.22-5.47-10.88-10.34-13.45-5.22-2.76-11.55-4.14-17.34-2.27-6,1.93-9.66,5.43-13.45,10.34Z" transform="translate(-331.12 -96.83)"/><path class="cls-1" d="M1420.4,1064.9c3.84,40.9,7,81.91,7.49,123a911.33,911.33,0,0,1-5.86,113.95q-1,8.61-2.1,17.21c-.19,1.47-.37,2.93-.57,4.39.41-3,.32-2.43,0,.22q-.61,4.5-1.28,9-2.83,19.38-6.19,38.69c-2,11.56,3.07,24.8,15.71,27.68,10.92,2.49,25.54-3.31,27.68-15.72,7.41-43,13.39-86.31,16.08-129.86a976.37,976.37,0,0,0-.18-115.14c-1.39-24.51-3.43-49-5.73-73.42-1.1-11.68-9.56-23.08-22.5-22.5-11.25.51-23.68,9.95-22.5,22.5Z" transform="translate(-331.12 -96.83)"/><path class="cls-1" d="M594.26,1362.06a1716.15,1716.15,0,0,0,186.72,46,1779,1779,0,0,0,193.76,25.4,1750.08,1750.08,0,0,0,192.3,3.92,1779.26,1779.26,0,0,0,194.62-17.62,1714.46,1714.46,0,0,0,188.45-38.3q11.64-3.06,23.23-6.28a15,15,0,0,0-8-28.93,1712.9,1712.9,0,0,1-187,40.8,1706.29,1706.29,0,0,1-188.22,19.38,1751,1751,0,0,1-191.41-1.33,1694.12,1694.12,0,0,1-187-21.86A1713.29,1713.29,0,0,1,625.27,1340q-11.53-3.37-23-6.91c-7.5-2.3-16.69,2.74-18.45,10.48a15.31,15.31,0,0,0,10.48,18.45Z" transform="translate(-331.12 -96.83)"/><path class="cls-1" d="M575.63,1352.33c-3,38.35,4.69,76.58-.38,114.89-4.9,37-12,75.32-18.06,112.73-1.24,7.72,2,16.52,10.48,18.45,7.21,1.65,17.11-2.19,18.45-10.47,6.39-39.55,13.67-79.07,18.88-118.8,2.54-19.42,2.56-38.7,1.54-58.24s-2.42-39-.91-58.56c.6-7.84-7.33-15.34-15-15-8.64.39-14.35,6.6-15,15Z" transform="translate(-331.12 -96.83)"/><path class="cls-1" d="M576.65,1600.61A1504,1504,0,0,0,813.51,1663a1549.16,1549.16,0,0,0,492.75,8.6,1500.67,1500.67,0,0,0,238.93-53.89c9.26-2.9,19.74-5.24,27.88-10.71,10.08-6.78,15-17.14,16-29,.75-8.81-1-17.69-2.06-26.41q-1.85-15.42-3.21-30.9c-3.76-42.43-4.87-85.17-2.23-127.7q1-16.15,2.77-32.25c.85-7.82-7.51-15.33-15-15-8.86.4-14.09,6.62-15,15-4.58,42-5.17,84.29-2.93,126.43q1.65,30.94,5.28,61.73c1,8.62,2.79,17.41,2.56,26.12,0,1-.06,2-.18,3,.31-2.54,0-.12-.18.34a24.1,24.1,0,0,1-.85,2.74c1.13-2.49-.2.09-.41.22,1.86-1.2-.17.13-.47.32,1.93-1.23-.17.11-.47.28-.87.49-1.72,1-2.6,1.4,2.28-1.12-1.84.66-2,.71-37.29,13-76,23-114.33,32.21q-58.53,14-118,23.26a1522,1522,0,0,1-236.69,17.79,1524.29,1524.29,0,0,1-237.5-19.1,1504.25,1504.25,0,0,1-232.69-56.8q-14.18-4.69-28.26-9.67c-7.41-2.62-16.74,3-18.45,10.47-1.91,8.4,2.55,15.66,10.48,18.45Z" transform="translate(-331.12 -96.83)"/><path class="cls-1" d="M561.62,1345.27a699.48,699.48,0,0,1-213.45,18.66c-5.83-.38-11.64,4.07-13.71,9.23-2.44,6.06-.81,11.41,3.1,16.38l70.58,89.66c2.86,3.63,5.82,7.21,8.59,10.91,1.38,1.84.61.65.39.47l.81,1.23-.07-8.53c-.31-.36,1.77-1.3,0-.25a23.53,23.53,0,0,0-2.94,2.64c-6.42,5.68-12.72,11.49-18.83,17.49a456.79,456.79,0,0,0-34,37.34q-8.76,10.76-17,22c-4.82,6.6-12.32,14.55-13.67,22.76-3.53,21.59,17.58,31.18,34.47,36.66,34.34,11.13,69.94,17.74,105.56,23.27,20,3.1,40.1,6.73,60.27,8.17,19.7,1.4,39.61-.85,57.17-10.4,7.12-3.87,9.38-13.69,5.38-20.52a15.25,15.25,0,0,0-20.52-5.39,57.21,57.21,0,0,1-19.89,6.22c1.6-.21-2.83.21-3.48.25-1.68.12-3.36.19-5,.22-4.26.09-8.52,0-12.76-.32-8.35-.56-14.22-1.38-21.48-2.43q-12.58-1.85-25.16-3.73c-34.4-5.23-68.81-11.25-102.2-21.2q-6.31-1.87-12.56-4c-1.78-.59-3.55-1.23-5.34-1.82-2.68-.87-.81-.32-.24,0-.85-.41-1.7-.84-2.53-1.3s-1.63-1-2.41-1.5c.21.14,1.65,1.26.33.21a13.31,13.31,0,0,1-1.41-1.4c.58.66,1.1,2.12.23,0,.41,1,.55,6.68.52,6.66s3.51-5.17,4-5.86a405.53,405.53,0,0,1,29.23-37.49,453.26,453.26,0,0,1,34-34.92c6.28-5.8,14.18-11.06,17.53-19.2,4.95-12-2.66-20.74-9.65-29.62l-76.72-97.45-10.6,25.6A729,729,0,0,0,569.6,1374.2c7.87-1.94,12.58-10.8,10.48-18.45a15.25,15.25,0,0,0-18.46-10.48Z" transform="translate(-331.12 -96.83)"/><path class="cls-1" d="M1594.4,1372.09a331.33,331.33,0,0,0,101.74,2.72c15-2,30.14-4.54,44.53-9.37,5.33-1.79,10.64-3.65,16.1-5,1.18-.29,2.38-.49,3.56-.79,3.1-.77-2.86-.1,1-.13.79,0,2.77-.45,3.43,0q-3.78-.61-1.5,0-3.52-1.69-1.6-.5l-3-23.56a354.91,354.91,0,0,0-55.07,67.11c-15.32,24-28.44,50.71-34,78.82-1.7,8.66,2.46,15.23,10.48,18.45.71.28,5.24,2.23,1.53.61,1.25.54,2.5,1.08,3.74,1.64q4.23,1.9,8.42,3.92c5.69,2.74,11.33,5.6,16.93,8.52,12.53,6.52,24.91,13.33,37.3,20.12,23.68,13,47.33,26.3,72.42,36.38l-6.62-25.07c-2.62,2.52-5.34,4.93-8.2,7.19-1.33,1.06-.16.12.1-.07-.8.59-1.61,1.19-2.42,1.77-1.64,1.18-3.32,2.32-5,3.43a213.4,213.4,0,0,1-20.93,12c-14.77,7.45-25.58,11.7-40.65,17.69-34,13.51-68.25,26.3-104.37,32.93-9.89,1.81-16.64,3-26.9,3.26-2.55.06-5.1,0-7.65-.09q-1.26-.07-2.52-.18c-.57,0-3.72-.48-1.84-.18a60.45,60.45,0,0,1-6.51-1.43,36.14,36.14,0,0,1-5.84-2c-7.33-3.43-16.17-2-20.52,5.39-3.8,6.5-2,17.07,5.38,20.52,19.48,9.11,39.74,8.9,60.61,5.94a380.5,380.5,0,0,0,58.13-13.28c18.59-5.71,36.74-12.65,54.79-19.84,15.92-6.35,31.91-12.6,47.37-20,17.38-8.33,34.23-18.35,48.2-31.77,8.88-8.53,3.33-21.07-6.62-25.07-.72-.29-5.24-2.24-1.53-.61l-3.74-1.64q-4.24-1.9-8.42-3.92c-5.7-2.74-11.33-5.6-16.94-8.52-12.53-6.53-24.91-13.34-37.29-20.12-23.68-13-47.34-26.3-72.43-36.38l10.48,18.45c5.26-26.71,16.19-48.5,31-71.64a314.76,314.76,0,0,1,50.38-61c7.38-7,4.74-18.39-3-23.56-11.23-7.47-27.18-2.22-38.76,1.61a248.86,248.86,0,0,1-38.92,9.61c-6.86,1.1-14.4,1.92-22.46,2.48q-12.59.87-25.19.76a294.22,294.22,0,0,1-49.09-4.39c-7.7-1.39-16.54,2.08-18.45,10.47-1.67,7.33,2.21,17,10.47,18.45Z" transform="translate(-331.12 -96.83)"/><path class="cls-2" d="M784.88,1553.51l-43.38-8.41,12.73-65.64,42.53,8.25L794.38,1500l-27.21-5.28-2.6,13.41,25.68,5-2.38,12.27-25.69-5-2.95,15.22,28.07,5.44Z" transform="translate(-331.12 -96.83)"/><path class="cls-2" d="M854.89,1564.47,838,1561.88l-2.65-14-23.57-3.61-6.73,12.59L789,1554.37,824,1492l16.1,2.46Zm-21.21-29.23-4.6-25-11.87,22.49Z" transform="translate(-331.12 -96.83)"/><path class="cls-2" d="M895.73,1564.85c-5.17,3.19-11.54,4.17-18.66,3.31-9.62-1.17-17.57-7.21-22.35-12.86l9.07-10.42c4.2,5.58,11.2,9.85,16.3,10.47s9.14-1.34,9.68-5.76-4.15-6.85-6.91-8.26-7.55-3.74-9.65-5a26.24,26.24,0,0,1-7.3-5.77c-2.56-3-4.4-7.17-3.65-13.42a18.85,18.85,0,0,1,8.69-13.69c4.14-2.72,10.45-4.1,18.15-3.17s16.1,5.66,20.08,10.73l-8,10.07c-3.38-4.32-9-7.93-14-8.53s-8.89.87-9.38,4.91,3.08,6,5.92,7.55,7.44,3.83,9.46,5c1.74.89,6,3.16,8.58,6.5a17.48,17.48,0,0,1,3.64,13.43A20.26,20.26,0,0,1,895.73,1564.85Z" transform="translate(-331.12 -96.83)"/><path class="cls-2" d="M926.57,1572.39,911,1570.83l6.64-66.54,15.62,1.56Z" transform="translate(-331.12 -96.83)"/><path class="cls-2" d="M982.44,1577l-44.05-3.46,5.22-66.65,43.19,3.38-1,12.46-27.63-2.16-1.07,13.62,26.08,2-1,12.47-26.09-2-1.21,15.46,28.5,2.23Z" transform="translate(-331.12 -96.83)"/><path class="cls-2" d="M1029.13,1575.11c-4.93,3.54-11.21,5-18.38,4.61-9.67-.49-18-6-23.2-11.27l8.32-11c4.58,5.27,11.87,9,17,9.29s9-2,9.26-6.42-4.62-6.54-7.47-7.75-7.8-3.21-10-4.29A25.91,25.91,0,0,1,997,1543c-2.76-2.85-4.89-6.84-4.57-13.13a18.8,18.8,0,0,1,7.7-14.26c3.94-3,10.14-4.83,17.89-4.44s16.46,4.52,20.78,9.3l-7.23,10.6c-3.68-4.07-9.53-7.28-14.57-7.53s-8.8,1.5-9,5.56,3.49,5.81,6.43,7.12,7.7,3.3,9.78,4.27c1.81.78,6.17,2.74,9,5.89a17.54,17.54,0,0,1,4.58,13.14A20.27,20.27,0,0,1,1029.13,1575.11Z" transform="translate(-331.12 -96.83)"/><path class="cls-2" d="M1089.41,1526.65l-17.24-.4-1.27,54.44-15.7-.36,1.27-54.45-17.24-.4.29-12.4,50.18,1.17Z" transform="translate(-331.12 -96.83)"/><path class="cls-2" d="M1156.78,1526l-17.25.26.83,54.46-15.7.24-.82-54.46-17.25.26-.19-12.4,50.19-.76Z" transform="translate(-331.12 -96.83)"/><path class="cls-2" d="M1191.28,1580.08c-19.84,1-36.06-11.12-37.13-32.71s13.87-35.32,33.71-36.3,36.07,11.21,37.14,32.8S1211.12,1579.1,1191.28,1580.08Zm-2.76-55.66c-11.13.55-19.15,9-18.52,21.78s9.46,20.49,20.59,19.94,19.15-9.1,18.52-21.87S1199.66,1523.87,1188.52,1524.42Z" transform="translate(-331.12 -96.83)"/><path class="cls-2" d="M1308.76,1540.92c1,9.35.07,16-4.1,21.59s-11,9.18-20.63,10.22-17.17-1.07-22.43-5.57-7.51-10.88-8.52-20.23l-4.18-38.72,15.7-1.7,4.18,38.73c.51,4.72,1.29,8.34,3.8,10.8a13.13,13.13,0,0,0,19.07-2.06c1.93-2.94,1.92-6.64,1.41-11.36l-4.18-38.73,15.7-1.7Z" transform="translate(-331.12 -96.83)"/><path class="cls-2" d="M1361.33,1556.92c-4.13,4.45-10,7.1-17.1,8.17-9.58,1.44-18.86-2.25-25-6.43l6-12.46c5.55,4.26,13.43,6.5,18.51,5.73s8.45-3.72,7.79-8.13-5.83-5.49-8.86-6.11-8.28-1.6-10.63-2.22a26.12,26.12,0,0,1-8.58-3.61c-3.28-2.25-6.15-5.73-7.09-12a18.82,18.82,0,0,1,4.71-15.51c3.26-3.73,9-6.75,16.65-7.9s17,1.15,22.21,5l-5,11.82c-4.41-3.25-10.78-5.23-15.76-4.48s-8.34,3.22-7.73,7.24,4.57,5,7.72,5.7,8.19,1.7,10.43,2.25c1.92.39,6.59,1.45,10,4a17.5,17.5,0,0,1,7.1,12A20.25,20.25,0,0,1,1361.33,1556.92Z" transform="translate(-331.12 -96.83)"/><path class="cls-2" d="M1423,1550l-43.4,8.33L1367,1492.65l42.54-8.17,2.36,12.28-27.22,5.22,2.58,13.42,25.69-4.93,2.36,12.28-25.69,4.93,2.92,15.23,28.07-5.4Z" transform="translate(-331.12 -96.83)"/><path class="cls-3" d="M1055.42,1051.39c-21.59-2.87-43.17,1.69-62.7,10.94a92.06,92.06,0,0,0-10.28,5.71c-1.59,1-3.15,2.08-4.68,3.19l-2.21,1.67-4.55,3.52c2.14-1.66,2.56-2,1.25-1-8.45,6.26-17.26,12.57-24,20.75-22.87,27.88-33.82,65.32-35.81,100.88-1.87,33.58,5.83,68.65,26.43,95.72,19.08,25.07,44.26,45.07,74.9,53.88,42.36,12.19,86.52-.45,123-23,10-6.19,14.78-20.4,8.08-30.79-6.47-10-20.08-14.69-30.79-8.07-4.1,2.54-8.25,5-12.51,7.23-1.89,1-3.79,2-5.72,2.91-1.07.53-2.15,1-3.23,1.54-.59.27-5.16,2.32-2.12,1,2.76-1.22-2.8,1.09-3.63,1.4q-3.09,1.15-6.22,2.18-6,1.93-12.13,3.34c-1.71.39-3.44.73-5.17,1.05-1,.18-1.95.3-2.92.49-2.52.5,2.46-.29,2.37-.29-4,.22-8,.8-12,.88q-5.08.09-10.15-.28c-1.54-.12-3.06-.33-4.6-.45-2.47-.19,2.94.43,2.75.37a28.49,28.49,0,0,0-3.82-.66,103.84,103.84,0,0,1-18.12-5.19c-.74-.29-1.52-.67-2.29-.91.26.08,5.25,2.38,2,.8-1.28-.63-2.58-1.21-3.85-1.85q-4.34-2.17-8.46-4.72-3.84-2.37-7.48-5c-.63-.46-1.26-1-1.92-1.42-.25-.15,4,3.23,2.2,1.69-1.35-1.17-2.76-2.25-4.11-3.41a136.82,136.82,0,0,1-12.89-12.82c-.89-1-1.77-2-2.63-3.08-1.17-1.41-4.19-5.77-.07,0-1.82-2.58-3.77-5.06-5.5-7.71s-3.25-5.3-4.68-8.06c-.82-1.59-1.58-3.21-2.34-4.83-.3-.64-1.26-2.9.06.2,1.48,3.5-.09-.3-.38-1.09a121.09,121.09,0,0,1-5.71-20.63c-.31-1.62-.56-3.24-.82-4.87-.63-3.94.32,1.43.23,1.77a12.94,12.94,0,0,0-.31-2.84c-.38-3.8-.61-7.63-.7-11.45a165.4,165.4,0,0,1,1-22.48c.59-5.24-.63,3.53.05-.54.33-1.92.62-3.84,1-5.75q1.07-5.73,2.51-11.37a191.17,191.17,0,0,1,6.67-20.48c1.39-3.65-.35,1.18-.64,1.46a12.56,12.56,0,0,0,1.14-2.57c.67-1.48,1.37-3,2.1-4.42q2.43-4.93,5.26-9.66,1.56-2.61,3.24-5.15c.78-1.17,1.87-3.71,3-4.37-2.33,1.32-2,2.26-.37.7,1-1,1.9-2,2.9-3,1.82-1.76,3.73-3.41,5.68-5,.66-.54,1.33-1,2-1.59,2.14-1.75-3.26,2.45.13-.09.9-.67,1.79-1.35,2.68-2,1.56-1.18,8.61-6.76,4.81-3.69-2.36,1.89-.46.35,0,0,1.15-.81,2.29-1.64,3.47-2.42q2.4-1.59,4.91-3,2.89-1.67,5.9-3.12l2-1c4.56-2.16-3.26,1.12-.44.2,4.27-1.4,8.42-2.91,12.81-3.9q1.59-.36,3.18-.66c.26,0,5.53-1,1.88-.35-3.3.53.31,0,1.15-.06,1.41-.11,2.82-.2,4.23-.25a94,94,0,0,1,15.81.86c5.27.7,12.34-3,15.91-6.59,3.9-3.91,6.84-10.31,6.59-15.91-.26-5.82-2.17-11.86-6.59-15.91-4.71-4.33-9.63-5.76-15.91-6.59Z" transform="translate(-331.12 -96.83)"/><path class="cls-3" d="M1099.61,1255c21.69-7.55,43.89-13.49,65.65-20.78l1.54-.42a8.3,8.3,0,0,1-8-2.13q-5.38-.67-7-5.52-2.74-5.48-1.35-1.72c.38,3,1.63,6.08,2.4,9l5,18.91,10.53,39.72c3,11.38,16.19,19.43,27.68,15.72,11.69-3.79,18.94-15.49,15.71-27.68L1200,1235.62c-4.6-17.37-7.33-41.3-28.5-45.75-9.18-1.93-17.85.8-26.56,3.38q-9.4,2.79-18.75,5.7c-12.92,4-25.79,8.2-38.57,12.65-11.09,3.86-19.63,15.58-15.71,27.68,3.55,11,15.78,19.86,27.68,15.71Z" transform="translate(-331.12 -96.83)"/><path class="cls-3" d="M1130.4,1082.92c3.38-5.92,9.13-10.79,16.15-11.39a13.18,13.18,0,0,1,13.67,9.54c2,7-4.41,11.85-9,16-5.82,5.19-12.07,9.88-17.74,15.24-9,8.51-25.1,28.73-12.93,40.87,6.57,6.55,17.46,4.13,25.42,2.15,6.92-1.73,16-5.8,23-2.68,3.73,1.64,8,1.06,10.26-2.7,1.9-3.17,1-8.62-2.69-10.26-7.07-3.11-13.75-3.47-21.31-2.12-7,1.24-13.68,4.15-20.74,4.75-.87.07-2.91.49-3.7,0,1.15.75,1-1.6,1.34-2.68a30.36,30.36,0,0,1,4.23-8.17c3.57-5.12,8.4-9.34,13.12-13.37,9.64-8.22,23.79-16.94,25.86-30.47,2-12.95-7-26-19.3-29.88-15.15-4.76-31.12,4.57-38.57,17.63-4.8,8.4,8.16,16,13,7.57Z" transform="translate(-331.12 -96.83)"/><path class="cls-4" d="M2166.74,1274.74a1.5,1.5,0,0,0,0-3,1.5,1.5,0,0,0,0,3Z" transform="translate(-331.12 -96.83)"/><path class="cls-1" d="M2259.69,988.61a300.5,300.5,0,0,1,58.86-17.54q7.51-1.46,15.07-2.57c1.05-.16,2.18-.23,3.21-.47-5.5,1.24-1.9.26-.35.07q4.44-.55,8.9-1,15.93-1.59,32-1.87t32.17.66q7.81.45,15.6,1.22,3.69.36,7.36.78l4.07.49c6.05.76-3.4-.55,1.31.18a398,398,0,0,1,60.79,13.83c9.71,3.11,19.18,6.77,28.62,10.63,3.22,1.32-5-2.16-.2-.08l2.81,1.21q3.3,1.44,6.57,2.92c3.91,1.78,7.8,3.61,11.64,5.52,13.91,6.9,27.21,14.92,40.61,22.75,9.42,5.5,19,10.75,28.44,16.19,2.94,1.69,5.78,3.54,8.54,5.5,1.55,1.1,6.32,5.79,1.34.9,1.51,1.49,3.36,2.71,5,4.09,14.46,12.27,27.39,26.37,39.5,40.93q4.49,5.4,8.82,10.92c.6.76,1.18,1.53,1.79,2.29-3.62-4.53-1.32-1.7-.45-.56q2.34,3.09,4.64,6.22c4.95,6.74,9.74,13.6,14.27,20.64a272.36,272.36,0,0,1,13.86,24.16q3.69,7.26,7,14.73c.59,1.31,1.21,2.62,1.73,4-1.79-4.6-.65-1.55-.26-.57,1.28,3.24,2.59,6.47,3.81,9.74a353.59,353.59,0,0,1,17.47,64.89c.42,2.46.8,4.92,1.16,7.39.26,1.76-.2,4.91,0-.22a23.78,23.78,0,0,0,.42,3.31q1.05,8.67,1.74,17.36,1.26,16,1.25,32.06,0,15.9-1.32,31.78c-.43,5.14-1,10.25-1.59,15.37-.47,4.12.12-.53.18-1.14-.16,1.61-.45,3.23-.69,4.83q-.61,4-1.29,8a380,380,0,0,1-16.05,61.71q-2.74,7.83-5.83,15.53c-.42,1-.84,2.06-1.25,3.09-1.53,3.79.08-.12.33-.75-1.25,3.11-2.66,6.17-4,9.22q-6.87,15.09-15,29.59-8.26,14.84-17.68,29-4.42,6.66-9.09,13.17c-1.75,2.44-3.51,4.86-5.31,7.26-.9,1.21-1.82,2.4-2.72,3.62s-.73,1,.9-1.14c-.49.62-1,1.25-1.48,1.86a253,253,0,0,1-20.49,22.8q-5.29,5.2-10.88,10.11-2.64,2.32-5.34,4.57l-3,2.48c-1,.84-5.52,4.86-1,.82-7.28,6.47-16.27,11.74-24.56,16.79a302.41,302.41,0,0,1-27.81,15q-3.24,1.53-6.51,3l-3.65,1.6c-3.71,1.63.43-.11.95-.4-4.8,2.63-10.6,4.23-15.74,6.06-10.42,3.72-21,6.92-31.71,9.71q-17.24,4.47-34.78,7.55c-5.71,1-11.5,2.15-17.27,2.73,4.95-.5,1.58-.21.52-.08-1.81.22-3.63.46-5.45.67q-4.52.52-9.06,1a380.83,380.83,0,0,1-67.87.57q-8.83-.72-17.63-1.81a34,34,0,0,1-3.53-.45c4.77,1.14,1.89.26.67.08-3.53-.53-7.07-1-10.6-1.62q-16.74-2.75-33.26-6.58c-22.12-5.11-44.13-11.35-65.21-19.81-3.3-1.33,5,2.22-.18-.11l-3.15-1.41c-2.61-1.2-5.2-2.43-7.77-3.71q-7.71-3.82-15.18-8.1c-10-5.69-19.62-11.93-29-18.54q-6.33-4.47-12.51-9.16c-.13-.1-4.61-3.56-1.83-1.39s-1.67-1.32-1.79-1.42c-2.26-1.77-4.49-3.57-6.72-5.38-8.56-7-17-14-24.9-21.75a287.79,287.79,0,0,1-20.83-22.77c-.21-.26-5.18-6.36-5.13-6.41s2.81,3.69,0,0c-.82-1.1-1.64-2.2-2.45-3.31q-4.89-6.68-9.43-13.58a377.08,377.08,0,0,1-30.61-56.62c-.12-.28-2.23-5.24-.79-1.82s-.63-1.54-.74-1.82c-.92-2.25-1.81-4.51-2.69-6.77q-3-7.86-5.7-15.83a315.38,315.38,0,0,1-9-31.73q-2.07-9.27-3.54-18.64c-.2-1.24-.38-2.49-.57-3.74-.66-4.32-.1-.43,0,.38-.62-3.7-.9-7.51-1.26-11.24-1.14-11.89-1.69-23.83-1.82-35.77-.23-20.45,1.41-40.73,2.1-61.13.23-6.59.54-13.13,1.29-19.69.16-1.37.34-2.73.5-4.1.34-2.75-1.09,7.76-.41,3.07.13-.84.25-1.69.37-2.53q.84-5.55,1.91-11.06,2.45-12.76,6-25.3c2.81-9.89,6.1-19.65,9.87-29.21.52-1.33,1-2.65,1.59-4l.66-1.6c1.42-3.51-2.44,5.64-.91,2.16,1.2-2.72,2.38-5.45,3.63-8.15q3.7-8,7.87-15.84a316,316,0,0,1,20.87-33.86q2.94-4.17,6-8.23c3.43-4.53-2.91,3.64.15-.21,1.27-1.59,2.53-3.18,3.81-4.76q7.24-8.87,15.09-17.21a343.48,343.48,0,0,1,35.38-32.62c.89-.72,5.87-4.62,2.86-2.29s.41-.29.88-.65l2.13-1.6q5.43-4,11-7.88,11.66-8,23.85-15.18a450.87,450.87,0,0,1,52.41-26.18c4.81-2,9-8.67,10.34-13.44,1.48-5.39.81-12.56-2.27-17.34s-7.71-9-13.45-10.34c-6.31-1.44-11.44-.23-17.33,2.27-67.84,28.73-128.23,73.58-170.64,134.24A328.71,328.71,0,0,0,2018,1209.57a281.55,281.55,0,0,0-4.67,38.82c-1,26.09-2.87,52.1-1.91,78.24,1,26.83,4.27,53.88,11.19,79.85,6,22.35,14.37,44.07,24.05,65,18.9,40.93,45.12,79.9,78.53,110.4,35.77,32.66,76.73,61.25,122.08,78.72,44.85,17.28,94.19,26.8,142,30,49,3.31,99.44-3.19,146.66-16.33,44.55-12.4,86.25-32.79,122.33-61.77,35.62-28.6,63.14-67.2,84.83-107.09,22-40.49,37.83-84.64,45-130.19,14.34-90.35.88-189.35-49.72-267a506.29,506.29,0,0,0-35.62-47.71c-12.26-14.68-25.34-28.91-40-41.21-16-13.4-34.06-22.73-52-33.22-13.9-8.13-27.71-16.41-42.2-23.48-38.72-18.86-79.32-32-122-37.93-46.89-6.48-94.23-6-140.77,3.11a299.85,299.85,0,0,0-58.08,17.39c-5.66,2.37-10.22,4.82-13.45,10.34-2.82,4.82-4,11.93-2.26,17.34C2235.38,983.29,2248.06,993.47,2259.69,988.61Z" transform="translate(-331.12 -96.83)"/><path class="cls-1" d="M2027.13,1192.31c-41.33-2.13-82.47-7.61-123.88-8.2-11.61-.17-23.55-.51-32.62,8-8.62,8.13-10.62,20.73-7.68,31.86,2.7,10.21,9.77,17.8,16.64,25.42a119,119,0,0,1,15.62,21.64c4.5,7.74,10,16.42,11.17,24.85-.26-2,0,.75-.12,1,1-2.68-.53.52-.41.41,1.55-1.35-.35.15-.87.94-1.34,2,1.25-1.37-.37.42-2.91,3.21-6,6.25-8.92,9.47a250.27,250.27,0,0,0-33.52,46.87,285.62,285.62,0,0,0-13.28,27.81c-3.76,9-9.2,19.61-8.62,29.55.43,7.51,4.84,13.8,11.17,17.63,5.44,3.29,12.25,3.21,18.39,3.77,10.24.93,20.49,1.61,30.76,2.1,42.74,2.05,86.34,1.58,127.74,8.58,7.7,1.31,16.52-2,18.45-10.47,1.65-7.26-2.21-17.06-10.48-18.46-36.73-6.21-73.53-7.7-110.69-8.74-18.62-.52-37.23-1.32-55.78-3l-2.89-.27c-.85-.08-3.12.33-2.52-.23,1.43-1.33,4.63,5.7,3.63,4l2,3.49q-.12,1.55.24,0c1-1.46,1.33-4,1.92-5.65,1-2.69,2-5.36,3-8a223.52,223.52,0,0,1,10-21.79,243.84,243.84,0,0,1,13.54-22.83,173,173,0,0,1,14.34-18.93c5.82-6.76,12.68-12.75,17.69-20.16,6.28-9.29,6.56-20.72,2.7-31A171.55,171.55,0,0,0,1904.1,1232c-2.73-3.24-5.64-6.33-8.48-9.47-.16-.17-1.75-2.18-.57-.6-.62-.83-1.2-1.73-1.74-2.61q-.61-1-1.14-2.1c-.76-1.56.25,1.45-.29-1.17-.63-3-.24-1-.19-.33a19.9,19.9,0,0,1,0-2.89c-.1,1.35-.81,1.45.21-.16-.28.44-.92,1.38-1.11,1.77.41-.87,2.08-1.11.46-.39-.94.41-.73.8-.22.17l.69-.19c-1.39.11-1.54.13-.44.08,1.49-.09,3,0,4.5,0,43.93,0,87.56,6,131.38,8.26,7.85.41,15.35-7.19,15-15a15.34,15.34,0,0,0-15-15Z" transform="translate(-331.12 -96.83)"/><path class="cls-1" d="M2786.77,1211.15c33.64,1.51,68.06,2.88,101.06,7.5q12.6,1.75,25.09,4.14c2.14.41,4.29.81,6.42,1.29s1.62.87.47-.52a6.66,6.66,0,0,0-1-1.14c-1-.62.51-.93-.2.15-.41.6.06.14.12,1.11q.09,1.78,0,3.57c-.16,5.12-2.73,12.92-5.08,18-3.56,7.69-7.62,15.16-11.49,22.69l-26.93,52.4c-3.38,6.57-2,12.65,2.34,18.18l55,69.36v-21.21c-3.26,3.54,2.07-1.63-1.34,1.35l-1.21.66c1.27-.51,1.4-.6.38-.26-.48.12-4.41.88-2.76.69,1.91-.22-1.85.06-2.21.08-6.12.22-12.27-.11-18.39-.23-13.36-.28-26.71-.58-40.07-.66-27.63-.18-55.24.74-82.69,4-7.76.92-15.39,6.23-15,15,.33,7.33,6.66,16,15,15,29.27-3.49,58.71-4.28,88.16-4,14,.15,27.94.5,41.91.76,14.21.27,29,.06,39.43-11.22,6-6.48,5.23-14.62,0-21.21l-55-69.37,2.34,18.18,26.49-51.52c8.82-17.18,19.23-34.43,20.95-54.06.9-10.21-1-21.85-9.09-28.83-7.6-6.55-18.77-7.34-28.29-9-19.6-3.35-39.4-5.63-59.22-7.24-21.72-1.77-43.5-2.74-65.27-3.72-7.85-.35-15.35,7.15-15,15a15.32,15.32,0,0,0,15,15Z" transform="translate(-331.12 -96.83)"/><path class="cls-1" d="M2030.78,1006.83l28.09,15c8.51,4.56,16.09-8.38,7.57-13l-28.09-15c-8.51-4.56-16.09,8.38-7.57,13Z" transform="translate(-331.12 -96.83)"/><path class="cls-1" d="M2031.91,873.22l96.63,96.64c6.84,6.83,17.45-3.77,10.61-10.61l-96.63-96.63c-6.84-6.84-17.45,3.77-10.61,10.6Z" transform="translate(-331.12 -96.83)"/><path class="cls-1" d="M2169.87,897.61l20.93,32.68c5.19,8.1,18.18.59,12.95-7.57L2182.82,890c-5.19-8.11-18.18-.59-13,7.57Z" transform="translate(-331.12 -96.83)"/><path class="cls-1" d="M2203.47,778.13A1322,1322,0,0,1,2250,908.42c2.76,9.22,17.24,5.3,14.46-4a1324.55,1324.55,0,0,0-46.54-130.29c-1.56-3.72-5-6.43-9.23-5.24-3.52,1-6.81,5.46-5.24,9.23Z" transform="translate(-331.12 -96.83)"/><path class="cls-1" d="M2328.36,823.88,2342.54,870c2.83,9.2,17.32,5.27,14.47-4l-14.18-46.11c-2.83-9.2-17.31-5.27-14.47,4Z" transform="translate(-331.12 -96.83)"/><path class="cls-1" d="M2401,684.82V865.38c0,9.65,15,9.67,15,0V684.82c0-9.65-15-9.66-15,0Z" transform="translate(-331.12 -96.83)"/><path class="cls-1" d="M2475.58,823.37,2457.72,864c-1.64,3.74-1.06,8,2.69,10.26,3.17,1.9,8.64,1,10.26-2.69l17.86-40.66c1.65-3.74,1.07-8-2.69-10.26-3.16-1.9-8.63-1-10.26,2.69Z" transform="translate(-331.12 -96.83)"/><path class="cls-1" d="M2668.07,746.09a614.94,614.94,0,0,0-68.19,75.69c-10.07,13.21-19.53,26.86-28.51,40.84s-17.77,27.87-30,39.15c-7.12,6.55,3.51,17.13,10.61,10.6,12.29-11.31,21.54-25.31,30.51-39.29s18.25-27.64,28.22-40.88a591.65,591.65,0,0,1,68-75.5c7.05-6.62-3.57-17.21-10.61-10.61Z" transform="translate(-331.12 -96.83)"/><path class="cls-1" d="M2657.57,908.47l-30.45,30.59c-6.81,6.85,3.79,17.46,10.61,10.6l30.45-30.58c6.81-6.85-3.79-17.46-10.61-10.61Z" transform="translate(-331.12 -96.83)"/><path class="cls-1" d="M2832.91,872.73l-145.5,131.63c-7.18,6.49,3.46,17.07,10.6,10.61l145.5-131.63c7.18-6.49-3.46-17.07-10.6-10.61Z" transform="translate(-331.12 -96.83)"/><path class="cls-1" d="M2766.58,1056l43.37-12.25c9.27-2.62,5.33-17.09-4-14.46l-43.36,12.24c-9.28,2.62-5.34,17.1,4,14.47Z" transform="translate(-331.12 -96.83)"/><path class="cls-1" d="M2054.81,1582.31l-33.39,30.14c-7.18,6.49,3.45,17.07,10.6,10.61l33.39-30.15c7.18-6.48-3.45-17.06-10.6-10.6Z" transform="translate(-331.12 -96.83)"/><path class="cls-1" d="M2127.25,1626.49q-69.08,56.6-134,118c-7,6.64,3.58,17.23,10.6,10.6q64.93-61.3,134.06-118c3.15-2.58,2.63-7.91,0-10.6-3.07-3.14-7.49-2.56-10.61,0Z" transform="translate(-331.12 -96.83)"/><path class="cls-1" d="M2180.58,1697.56a138,138,0,0,1-19.13,39.09c-5.54,7.93,7.46,15.43,13,7.57a150.91,150.91,0,0,0,20.64-42.68c2.81-9.25-11.66-13.21-14.46-4Z" transform="translate(-331.12 -96.83)"/><path class="cls-1" d="M2273,1727.4q-48,67.24-95.95,134.54c-5.61,7.87,7.39,15.37,12.95,7.57q48-67.29,96-134.54c5.61-7.87-7.39-15.37-13-7.57Z" transform="translate(-331.12 -96.83)"/><path class="cls-1" d="M2349.36,1760.4l-12.72,30.52c-1.57,3.76,1.7,8.21,5.24,9.22,4.3,1.23,7.68-1.51,9.23-5.24l12.71-30.51c1.57-3.77-1.69-8.21-5.24-9.23-4.3-1.23-7.67,1.52-9.22,5.24Z" transform="translate(-331.12 -96.83)"/><path class="cls-1" d="M2426.42,1783.41V1948.7c0,9.66,15,9.67,15,0V1783.41c0-9.65-15-9.67-15,0Z" transform="translate(-331.12 -96.83)"/><path class="cls-1" d="M2489.72,1760.85a94,94,0,0,0,19.54,33.92c6.45,7.21,17-3.42,10.6-10.6a76,76,0,0,1-15.67-27.3c-3-9.15-17.46-5.23-14.47,4Z" transform="translate(-331.12 -96.83)"/><path class="cls-1" d="M2563.48,1719.46a1661.48,1661.48,0,0,0,62.12,159.37c1.67,3.73,7,4.55,10.26,2.7,3.82-2.18,4.34-6.59,2.69-10.27a1625.42,1625.42,0,0,1-60.61-155.79c-3-9.12-17.51-5.21-14.46,4Z" transform="translate(-331.12 -96.83)"/><path class="cls-1" d="M2623.49,1687.89a115.11,115.11,0,0,0,23.35,30.15c7.08,6.54,17.71-4,10.6-10.61a102.54,102.54,0,0,1-21-27.11c-4.57-8.51-17.53-.94-13,7.57Z" transform="translate(-331.12 -96.83)"/><path class="cls-1" d="M2695.77,1648.73l117.87,136.55c6.32,7.32,16.89-3.33,10.61-10.6l-117.87-136.56c-6.32-7.32-16.89,3.33-10.61,10.61Z" transform="translate(-331.12 -96.83)"/><path class="cls-1" d="M2766.59,1610.93a89.92,89.92,0,0,0,39.08,24.86c9.21,3,13.16-11.52,4-14.47a74.74,74.74,0,0,1-32.47-21c-6.53-7.14-17.11,3.49-10.6,10.61Z" transform="translate(-331.12 -96.83)"/><path class="cls-5" d="M2195,1239v102.7" transform="translate(-331.12 -96.83)"/><path class="cls-5" d="M2192.61,1239v102.7c0,3.11,4.84,3.12,4.84,0V1239c0-3.12-4.84-3.12-4.84,0Z" transform="translate(-331.12 -96.83)"/><path class="cls-5" d="M2192.54,1239.65c12.31-3.72,30.82-10.12,43.12-13.84-5.16,21.35-11.78,38.12-18.22,57.26-5.27,15.68-12.37,38.34-23.06,61.88" transform="translate(-331.12 -96.83)"/><path class="cls-5" d="M2193.19,1242c14.44-4.41,28.68-9.43,43.12-13.84l-3-3c-5.07,20.48-12.52,40.17-19.2,60.16-6.59,19.74-13.31,39.38-21.84,58.4-1.27,2.82,2.9,5.29,4.18,2.44,8.41-18.74,15.18-38.07,21.67-57.54,6.87-20.67,14.62-41,19.86-62.17a2.44,2.44,0,0,0-3-3c-14.44,4.41-28.68,9.42-43.12,13.83-3,.91-1.71,5.59,1.29,4.68Z" transform="translate(-331.12 -96.83)"/><path class="cls-4" d="M2113.43,1269.23c15.24-3.87,25.41-9.17,40.87-14.85,4-1.48,14.65-5.56,18.68-7l19.56-7.69.88,33.63" transform="translate(-331.12 -96.83)"/><path class="cls-4" d="M2114.08,1271.56c18.52-4.91,36.19-13.08,54.11-19.84,8.36-3.16,16.67-6.46,25-9.73l-3.07-2.34.88,33.63c.08,3.11,4.93,3.12,4.85,0l-.88-33.63c0-1.43-1.55-2.94-3.07-2.34-8.32,3.28-16.63,6.58-25,9.74-17.91,6.76-35.59,14.93-54.11,19.84-3,.8-1.74,5.47,1.29,4.67Z" transform="translate(-331.12 -96.83)"/><path class="cls-6" d="M2193.42,1345.37v-72.09l-28.21-.26a1.06,1.06,0,0,0-.53.08c-.44.22-.37.86-.25,1.33,1.27,4.68,2.21,9.19,3.72,13.79,3.29,10.11,8.17,19.61,12.09,27.92,5.27,11.21,7.69,18.68,13.18,29.23" transform="translate(-331.12 -96.83)"/><path class="cls-6" d="M2195.85,1345.37v-72.09a2.47,2.47,0,0,0-2.43-2.43l-18.72-.16c-3.08,0-10.57-1.67-12.45,1.76-1.74,3.17,1.81,10.54,2.72,13.66a141.3,141.3,0,0,0,7.48,19.24c6.28,13.71,12,27.8,18.88,41.24,1.42,2.78,5.6.33,4.18-2.44-5.24-10.29-9.33-21.1-14.27-31.53-3.06-6.47-6.27-12.89-8.82-19.59-1-2.7-2-5.43-2.78-8.21-.51-1.82-1-3.65-1.45-5.49.28-1.79-.31-2.9-1.78-3.32,0-1.69-1.91.28.48-.55a10.62,10.62,0,0,1,3,0l9.4.08,14.1.13-2.42-2.42v72.09c0,3.12,4.85,3.12,4.85,0Z" transform="translate(-331.12 -96.83)"/><path class="cls-7" d="M2162.87,1272.84c1.76,6.15,2,8.35,3.52,15.6-16.49-5.49-35.75-14.66-53-19.21Z" transform="translate(-331.12 -96.83)"/><path class="cls-7" d="M2160.54,1273.48c1.42,5.16,2.43,10.37,3.51,15.61l3-3c-17.78-6.07-34.81-14.21-53-19.22l-.65,4.76,49.44,3.61c3.11.23,3.1-4.62,0-4.84l-49.44-3.62c-2.77-.2-3.22,4-.64,4.76,18.14,5,35.17,13.15,52.95,19.22,1.87.63,3.33-1.3,3-3-1.08-5.24-2.09-10.45-3.51-15.61C2164.38,1269.19,2159.7,1270.47,2160.54,1273.48Z" transform="translate(-331.12 -96.83)"/><path class="cls-1" d="M2313.45,1315.55c-3.89,4-12,10.47-27.71,10.47-22.59,0-40.29-14.92-40.29-39.63s17.92-39.62,40.29-39.62c15.8,0,24.37,6.57,26.38,8.68l-5.57,14.92c-1.44-1.9-9.68-8-19.81-8-13,0-23,8.68-23,23.71s10.46,23.59,23,23.59c9.57,0,16.47-3.78,20.7-8.12Z" transform="translate(-331.12 -96.83)"/><path class="cls-1" d="M2369.77,1324.68h-17l-.34-5.79c-2.33,2.34-6.79,7-15.69,7-9.68,0-19.92-5.23-19.92-17.47s11.24-16.36,21.37-16.81l13.8-.55v-1.23c0-5.78-4.12-8.79-11.24-8.79a35,35,0,0,0-16.81,4.9l-4.67-11.58a54.09,54.09,0,0,1,23.48-5.56c10.24,0,16.14,2.34,20.48,6.34s6.57,9.35,6.57,18.59Zm-17.7-24.15-8.79.56c-5.46.22-8.69,2.55-8.69,6.67s3.45,6.79,8.35,6.79a10.91,10.91,0,0,0,9.13-5Z" transform="translate(-331.12 -96.83)"/><path class="cls-1" d="M2416.17,1325.9c-8.12,0-13.91-3-17.36-8.12v27H2381v-75h16.92l-.11,7h.22c4-4.78,9.91-8,18.25-8,15.81,0,25.82,12.35,25.82,28.49S2432.09,1325.9,2416.17,1325.9Zm-5.12-43.07c-7.57,0-12.8,5.79-12.8,14.25s5.23,14.24,12.8,14.24,12.91-5.78,12.91-14.24S2418.73,1282.83,2411.05,1282.83Z" transform="translate(-331.12 -96.83)"/><path class="cls-1" d="M2483.39,1283.39h-12.13v19.7c0,4.67.67,5.79,1.56,6.79s1.89,1.33,4.23,1.33a16.62,16.62,0,0,0,5.34-1l.89,13.91a47.87,47.87,0,0,1-12.69,1.78c-6.34,0-10.57-1.89-13.35-5.12s-3.9-7.79-3.9-16.13v-21.26h-7.79v-13.47h7.79V1255h17.92v14.91h12.13Z" transform="translate(-331.12 -96.83)"/><path class="cls-1" d="M2543,1301.53H2504c.78,7.9,6.79,11.46,14,11.46a30.82,30.82,0,0,0,16.47-5.23l7,9.24c-1.79,1.34-9,8.9-26,8.9s-29.27-10.46-29.27-28.6,13.36-28.49,29.61-28.49,27.49,10.79,27.49,26.82C2543.27,1298.3,2543,1301.53,2543,1301.53Zm-16.36-10.13a11.06,11.06,0,0,0-11.24-11c-7.34,0-11.13,5.79-11.35,11Z" transform="translate(-331.12 -96.83)"/><path class="cls-1" d="M2587.56,1286.17h-.78a14.3,14.3,0,0,0-6.45-1.33,10.46,10.46,0,0,0-8.24,4c-1.34,1.78-2.78,5.34-2.78,11.47v24.37H2551.5v-54.87h17.81l-.11,7.79h.22c3.11-6,7.68-8.79,13.58-8.79a12.8,12.8,0,0,1,5.56,1Z" transform="translate(-331.12 -96.83)"/><path class="cls-1" d="M2630.63,1286.17h-.78a14.3,14.3,0,0,0-6.45-1.33,10.45,10.45,0,0,0-8.24,4c-1.34,1.78-2.78,5.34-2.78,11.47v24.37h-17.81v-54.87h17.81l-.11,7.79h.22c3.11-6,7.68-8.79,13.58-8.79a12.8,12.8,0,0,1,5.56,1Z" transform="translate(-331.12 -96.83)"/><path class="cls-1" d="M2684.61,1324.68h-17l-.34-5.79c-2.33,2.34-6.78,7-15.69,7-9.68,0-19.92-5.23-19.92-17.47s11.24-16.36,21.37-16.81l13.8-.55v-1.23c0-5.78-4.12-8.79-11.24-8.79a35.11,35.11,0,0,0-16.81,4.9l-4.67-11.58a54.09,54.09,0,0,1,23.48-5.56c10.24,0,16.14,2.34,20.48,6.34s6.57,9.35,6.57,18.59Zm-17.7-24.15-8.79.56c-5.46.22-8.68,2.55-8.68,6.67s3.45,6.79,8.34,6.79a10.91,10.91,0,0,0,9.13-5Z" transform="translate(-331.12 -96.83)"/><path class="cls-1" d="M2169.52,1428.28h56.13c9.66,0,9.67-15,0-15h-56.13c-9.65,0-9.67,15,0,15Z" transform="translate(-331.12 -96.83)"/><path class="cls-1" d="M2584.37,1428.28h56.14c9.65,0,9.66-15,0-15h-56.14c-9.65,0-9.67,15,0,15Z" transform="translate(-331.12 -96.83)"/><path class="cls-2" d="M2302.94,1436.38h-5.68v8.53h-9.64v-8.53h-20.77v-7.29l19.35-26.95h11.06v26.51h5.68Zm-15.07-7.54v-16.5l-11.93,16.5Z" transform="translate(-331.12 -96.83)"/><path class="cls-2" d="M2314.26,1445.59c-3.46,0-5.87-2-5.87-5.32s2.41-5.31,5.87-5.31,5.81,2,5.81,5.31S2317.66,1445.59,2314.26,1445.59Z" transform="translate(-331.12 -96.83)"/><path class="cls-2" d="M2342.81,1445.59c-8.53,0-13.72-3.9-15.7-7l4.58-5.87a13.46,13.46,0,0,0,10.44,5.13c3.65,0,8-2.1,8-7.23s-4.2-7.17-8-7.17a14.44,14.44,0,0,0-7.79,2.23l-4.32-2.6,3.27-20.83h25v7.67h-17.74l-1.23,7.66a13.63,13.63,0,0,1,5.68-.93c6.49,0,14.9,4.08,14.9,14S2351.28,1445.59,2342.81,1445.59Z" transform="translate(-331.12 -96.83)"/><path class="cls-2" d="M2402.88,1442.12c-3,2.41-7,3.53-11.56,3.53-6.17,0-11.67-3.22-15.14-6.43l5-7.29c3.09,3.21,7.85,5.37,11.12,5.37s5.69-1.54,5.69-4.38-3.15-4-5-4.7-5.07-1.79-6.49-2.41a16.56,16.56,0,0,1-5.06-3.09,10.5,10.5,0,0,1-3.34-8.22,12,12,0,0,1,4.45-9.33c2.41-2,6.3-3.4,11.25-3.4s10.62,2.35,13.53,5.25l-4.26,7a14.71,14.71,0,0,0-9.52-4.33c-3.21,0-5.56,1.24-5.56,3.83s2.41,3.59,4.32,4.33,5,1.85,6.37,2.41a17.06,17.06,0,0,1,5.93,3.46,11.17,11.17,0,0,1,3.34,8.22A12.9,12.9,0,0,1,2402.88,1442.12Z" transform="translate(-331.12 -96.83)"/><path class="cls-2" d="M2441,1410.18h-11v34.73h-10v-34.73h-11v-7.92h32Z" transform="translate(-331.12 -96.83)"/><path class="cls-2" d="M2477.91,1444.91H2467l-3-8.59H2448.8l-3,8.59h-10.39l16.07-42.71h10.38Zm-16.19-16.38-5.31-15.33-5.32,15.33Z" transform="translate(-331.12 -96.83)"/><path class="cls-2" d="M2515.3,1444.91h-11.62l-9-16.32h-3.15v16.32h-10v-42.65h15.33c4.75,0,8.46,1,11.24,3a11.8,11.8,0,0,1,4.7,9.77c0,8.09-5.19,11.24-8.34,12.23Zm-14.71-33.81c-1.23-.92-2.84-1.11-5.13-1.11h-3.95v10.94h3.95c2.29,0,3.9-.25,5.13-1.18a4.76,4.76,0,0,0,2.17-4.32A4.85,4.85,0,0,0,2500.59,1411.1Z" transform="translate(-331.12 -96.83)"/><path class="cls-2" d="M2542.44,1442.12c-3,2.41-7,3.53-11.56,3.53-6.18,0-11.68-3.22-15.14-6.43l4.94-7.29c3.09,3.21,7.85,5.37,11.13,5.37s5.68-1.54,5.68-4.38-3.15-4-5-4.7-5.07-1.79-6.49-2.41a16.58,16.58,0,0,1-5.07-3.09,10.54,10.54,0,0,1-3.34-8.22,12,12,0,0,1,4.45-9.33c2.41-2,6.31-3.4,11.25-3.4s10.63,2.35,13.53,5.25l-4.26,7a14.67,14.67,0,0,0-9.52-4.33c-3.21,0-5.56,1.24-5.56,3.83s2.41,3.59,4.33,4.33,5,1.85,6.36,2.41a16.89,16.89,0,0,1,5.93,3.46,11.13,11.13,0,0,1,3.34,8.22A12.89,12.89,0,0,1,2542.44,1442.12Z" transform="translate(-331.12 -96.83)"/><path class="cls-1" d="M960.29,521.56c-14.68,8.51-21.86,25.53-27.23,41.62-11.88,35.62-19.64,72.47-26.52,109.38,39.28-32.59,85.21-64.67,131.79-86.09-7.07-2.62-21.46-1.16-29.82-1.54-44.72-2.06-88.41-19.37-134.23-16.38,7.92,10.62,21.35,15.07,32.23,22.62,36.59,25.35,68.7,58,107.68,73.87-18.77-48.83-35.13-94.65-53.9-143.48" transform="translate(-331.12 -96.83)"/><path class="cls-1" d="M952.72,508.61c-24.62,14.9-32.83,44.68-40.36,70.63-8.52,29.35-14.68,59.31-20.28,89.34-2.83,15.14,13.33,24.31,25.07,14.59,39.15-32.42,82.06-62.15,128.75-83.75,5.35-2.47,7.88-9.57,7.16-14.94A15.18,15.18,0,0,0,1042.32,572c-11.35-3.75-23.92-1.55-35.62-2.17-14.68-.79-27.26-3-42-5.82-29.8-5.65-59.89-12.28-90.42-10.47-6,.36-11.39,3.46-13.71,9.22-2.44,6.08-.79,11.4,3.11,16.39,8.83,11.29,22.37,16.42,34,24.1,12.8,8.45,23.07,17,34.87,26.3,24.39,19.25,48.75,38,77.65,50,10.23,4.24,22.31-8.41,18.45-18.46-18.32-47.69-35.58-95.78-53.9-143.48-2.9-7.56-10.09-12.77-18.45-10.48-7.23,2-13.4,10.85-10.48,18.45,18.32,47.7,35.58,95.79,53.9,143.49l18.45-18.45c1.49.61-2.65-1.2-3.18-1.45q-2.24-1-4.44-2.14-4.78-2.4-9.44-5.09c-5.79-3.32-11.42-6.93-16.92-10.71-12.14-8.33-21.8-16-33.14-25-11.9-9.4-23.79-18.86-36.25-27.49-5.32-3.68-11-6.64-16.62-9.88a73.61,73.61,0,0,1-7.69-4.91c2,1.48-1.24-1.15-1.58-1.48a40,40,0,0,1-4-4.5l-10.61,25.61c29.17-1.73,55.61,4.35,84.25,9.74,14.73,2.76,29.59,5.23,44.55,6.32,5.95.43,11.84.33,17.8.27,2.73,0,5.46,0,8.19.1.52,0,4.7.55,2.73.18s2.13.64,2.54.77l-3.58-27.41c-48.94,22.64-93.42,54.15-134.82,88.44L921,676.55c5.25-28.15,11-56.24,18.71-83.83,3.47-12.41,7-25,12-36.94-1,2.28.94-2,.93-2,.65-1.37,1.33-2.73,2-4.06,1.19-2.21,2.55-4.28,3.86-6.41,1.69-2.73-.7.53,1.22-1.67,1-1.11,1.94-2.19,3-3.22.36-.35,3.44-3.07,1.42-1.47a33.89,33.89,0,0,1,3.71-2.44A15.27,15.27,0,0,0,973.24,514c-4-6.93-13.57-9.6-20.52-5.38Z" transform="translate(-331.12 -96.83)"/><path class="cls-1" d="M1331.11,2052.36c-12.19-.23-22.93,7.57-32.22,15.47-20.54,17.49-39,37.26-57,57.4,36.27-5.44,76.43-8.09,113-3.95-3.38-4.24-12.77-8.69-17.77-12-26.73-17.89-47.16-44.78-76.44-60,.92,9.48,7.52,17.2,11.41,25.89,13.07,29.19,20.69,61.19,38.74,85.45,6.61-37,13.59-71.26,20.2-108.26" transform="translate(-331.12 -96.83)"/><path class="cls-1" d="M1331.11,2039.86c-22,.24-38.95,16.65-54.09,30.76-15.48,14.43-29.85,30-43.93,45.77-3.72,4.17-4.87,10.17-1.95,15.15,3,5.17,8.55,6.57,14.11,5.74,36.19-5.37,73.28-7.51,109.72-3.5,4.78.52,9.76-3.57,11.42-7.69a12.78,12.78,0,0,0-2.59-13.65c-6.12-7-15.45-10.56-22.94-15.8-8.17-5.73-15.63-12.4-23-19.06-15.88-14.29-31.74-29-50.76-39.09-7.42-3.92-20.13.74-18.81,10.79,1.53,11.74,7.4,20.36,12.44,30.76,4.49,9.25,7.85,19.1,11.46,28.72,7.54,20.12,15.16,40.69,28,58.16,3,4.12,7.11,6.78,12.46,6,4.52-.68,9.52-4.08,10.39-8.95,6.47-36.14,13.72-72.13,20.19-108.26,1.19-6.64-1.8-13.47-8.73-15.38-6-1.66-14.18,2-15.38,8.73-6.46,36.14-13.72,72.13-20.19,108.26l22.85-3c-11.58-15.81-18.62-34-25.45-52.2-3.69-9.84-7.43-19.66-11.58-29.33a131.24,131.24,0,0,0-6.6-13.08c-1.83-3.24-4.43-7.41-4.82-10.42l-18.81,10.8c17.72,9.35,32.11,23,46.91,36.26a314,314,0,0,0,24.27,20,126.85,126.85,0,0,0,10.92,7.11c4.06,2.37,7.13,3.87,9.58,6.66l8.84-21.34c-38.77-4.26-77.91-1.32-116.36,4.4l12.16,20.89c12.86-14.41,26-28.64,39.92-42a265.64,265.64,0,0,1,20.92-18.62c5.79-4.46,12.33-8.52,19.5-8.6,16.07-.18,16.12-25.19,0-25Z" transform="translate(-331.12 -96.83)"/><path class="cls-1" d="M1529.86,2183.85c-10.39-.2-19.55,6.45-27.47,13.19-17.52,14.91-33.27,31.78-48.58,48.95,30.93-4.64,65.19-6.9,96.4-3.37-2.88-3.61-10.89-7.41-15.15-10.26-22.8-15.25-40.22-38.18-65.19-51.14.78,8.09,6.41,14.67,9.73,22.08,11.14,24.89,17.64,52.18,33,72.87,5.64-31.55,11.59-60.77,17.22-92.32" transform="translate(-331.12 -96.83)"/><path class="cls-1" d="M1529.86,2171.35c-19.07.3-33.56,13.91-46.75,26.15-13.46,12.48-25.92,26-38.14,39.66-3.72,4.17-4.87,10.16-2,15.14,3,5.17,8.55,6.57,14.11,5.75,30.71-4.55,62.17-6.31,93.08-2.93,4.79.53,9.77-3.56,11.42-7.68a12.76,12.76,0,0,0-2.58-13.65c-5.32-6-13.21-9.08-19.67-13.59a203.42,203.42,0,0,1-19.39-16c-13.71-12.33-27.4-25.06-43.81-33.76a12.62,12.62,0,0,0-13.89,1c-4.29,3.41-5.2,7.9-4.48,13.14,1.28,9.28,7.15,16.77,11,25.06,3.61,7.77,6.42,15.95,9.43,24,6.36,16.94,12.86,34.2,23.61,48.91,3,4.12,7.12,6.77,12.45,6,4.53-.68,9.52-4.08,10.4-8.95,5.52-30.82,11.7-61.51,17.22-92.33,1.19-6.64-1.8-13.47-8.73-15.38-6-1.66-14.18,2.05-15.38,8.73-5.52,30.82-11.7,61.51-17.22,92.33l22.85-3c-9.88-13.51-15.86-29-21.69-44.52-3.18-8.47-6.4-16.92-10-25.22-3.22-7.47-8.73-14.14-9.84-22.22L1463.56,2192c15.11,8,27.33,19.62,40,30.94a268.59,268.59,0,0,0,21.26,17.43c3.09,2.23,6.29,4.2,9.57,6.13,1.66,1,3.29,2,4.91,3,1.3.91,1.5,1,.59.38a12.37,12.37,0,0,1,1.52,1.55l8.84-21.34c-33.24-3.63-66.75-1.07-99.72,3.82l12.16,20.89c11-12.29,22.14-24.43,34.06-35.82a224.3,224.3,0,0,1,17.71-15.77c4.6-3.54,9.94-6.81,15.44-6.89,16.08-.26,16.12-25.26,0-25Z" transform="translate(-331.12 -96.83)"/><path class="cls-1" d="M1710.8,2237.26c-7.48,13.74-5,30.59-1.49,45.83,7.72,33.75,19.26,66.49,31.54,98.85,15.31-44.49,36.11-91.77,62.52-131-6.83,1.33-17.46,9.38-24.22,13.08-36.21,19.81-78.91,27.12-113.55,51.43,11.32,4.57,24,1.64,36.22,2.36,41,2.44,81.88,12.74,120.19,6.58-38.18-29.46-73-57.71-111.21-87.17" transform="translate(-331.12 -96.83)"/><path class="cls-1" d="M1700,2231c-12.48,24.23-4.15,52.2,2.67,76.88,7.25,26.28,16.47,51.95,26.12,77.42,4.37,11.55,19.92,12.13,24.1,0,15.46-44.76,34.82-88.54,61.26-128,6.39-9.52-4.12-20.71-14.11-18.36-11.59,2.73-21.21,11.33-31.64,16.68-11.27,5.79-23,10.38-34.89,14.82-25.53,9.55-51.66,18.62-74.23,34.27-9.18,6.35-7.34,19,3,22.84,12.82,4.75,26.27,2.16,39.55,2.81,13.77.68,27.49,2.53,41.17,4.2,27.49,3.36,54.78,6.18,82.35,1.93,4.74-.73,8.43-6,9-10.39.64-5.42-1.8-9.24-6-12.45-37.28-28.79-73.92-58.39-111.21-87.17-5.35-4.13-14-.81-17.1,4.49-3.78,6.45-.88,13,4.48,17.1,37.29,28.78,73.93,58.38,111.21,87.16l3-22.85c-25,3.85-50.84.22-75.7-2.82-13.06-1.6-26.12-3.25-39.25-4.08-11.55-.73-23.74,2.07-34.82-2l3,22.84c21.36-14.8,45.71-23.28,69.85-32.34a390.32,390.32,0,0,0,37-15.61,169.2,169.2,0,0,0,14.87-8.49c4.74-3,8.95-5.84,13-6.8l-14.11-18.37c-27.61,41.17-47.65,87.23-63.78,133.95h24.1c-9-23.68-17.56-47.53-24.55-71.87-3.34-11.62-6.55-23.38-8.71-35.27-1.67-9.2-2.41-19.42,2-27.91,3.09-6,1.56-13.56-4.49-17.1-5.59-3.27-14-1.54-17.1,4.49Z" transform="translate(-331.12 -96.83)"/><path class="cls-1" d="M1981.8,2161.59c-8.33,16.69-3.65,34.74,1,51.82s10.67,33.8,16.94,50.36c4.37,11.56,19.91,12.12,24.1,0,9.8-28.29,22.06-55.84,38.74-80.79,6.28-9.39-4.07-20.93-14.12-18.36-7.87,2-14.27,7.51-21.39,11.17a199.53,199.53,0,0,1-21.42,9.07c-16.62,6.22-33.59,12.15-48.31,22.29-9.08,6.25-7.44,19.18,3,22.84,8.69,3.06,17.53,1.57,26.49,2s17.88,1.65,26.77,2.74c17.94,2.18,35.47,3.72,53.44,1,4.74-.71,8.44-6.05,9-10.39.64-5.42-1.81-9.24-6-12.46-23.85-18.41-47.29-37.34-71.14-55.76-5.35-4.13-14-.81-17.1,4.49-3.78,6.45-.88,13,4.48,17.1,23.85,18.42,47.3,37.34,71.14,55.76l3-22.85c-15.4,2.32-31.48,0-46.8-1.91-8.27-1-16.54-2.09-24.85-2.62-7.2-.46-14.87,1.24-21.77-1.18l3,22.84c13.49-9.29,28.69-14.62,43.9-20.34a264,264,0,0,0,24.35-10.27c3.09-1.54,6-3.23,8.94-5.06,1.69-1.06,3.36-2.14,5.11-3.11.81-.46,1.64-.9,2.48-1.3-1,.46-.9.48.37.08L2041,2170.36c-17.84,26.69-30.78,56.51-41.25,86.76h24.1c-5.59-14.79-11-29.68-15.39-44.87-2.07-7.14-4-14.35-5.49-21.64-1.08-5.33-2-11.53.4-16.4,3-6,1.61-13.54-4.48-17.11-5.54-3.23-14.08-1.58-17.1,4.49Z" transform="translate(-331.12 -96.83)"/><path class="cls-1" d="M2219.27,2008.79c-12.51,12.33-13.75,30.45-14.87,47-1.24,18.53-.92,37.11-.27,55.66a12.56,12.56,0,0,0,7.68,11.42c4.19,1.69,10.61,1.36,13.66-2.58,18.24-23.52,38.53-46.37,62.22-64.56,4.48-3.45,7.35-8.29,5.75-14.12-1.53-5.57-6.53-8.76-12.06-9.18-7-.53-13.91,2.13-20.68,3.4-8.25,1.55-16.83,1.73-25.2,2-18.18.59-36.52.87-54.15,5.85-8.25,2.33-13.18,14.83-5.52,20.9,7.36,5.83,15.34,8,24,11,8,2.73,15.69,6.8,23.31,10.46,16.4,7.88,33.07,16.05,51.12,19.27,5,.9,9.93-.19,13.13-4.48,2.86-3.82,3.78-9.66,1-13.88-16.68-25.09-32.81-50.54-49.49-75.63-3.74-5.62-11-8-17.11-4.49-5.57,3.26-8.24,11.46-4.48,17.1,16.68,25.1,32.82,50.55,49.5,75.64l14.11-18.36c-16-2.87-30.58-9.76-45.14-16.76-8.14-3.91-16.29-7.77-24.64-11.2-5.41-2.21-13.66-3.19-17.64-6.34L2188,2067.8c16.14-4.56,32.75-4.43,49.37-5a232.38,232.38,0,0,0,26.35-2.25c3.49-.52,6.86-1.29,10.29-2.09,1.45-.35,2.91-.69,4.38-1,1.64-.3,1.88-.33.73-.09a12.28,12.28,0,0,1,2.27.06l-6.3-23.29c-25.57,19.63-47.57,43-67.29,68.47l21.34,8.84c-.59-16.6-.9-33.22-.07-49.81.59-11.76,0-27.43,7.89-35.18,11.48-11.3-6.2-29-17.68-17.67Z" transform="translate(-331.12 -96.83)"/><path class="cls-1" d="M1298.28,294.43c-14.67,8.5-21.86,25.52-27.23,41.62-11.87,35.62-19.64,72.47-26.51,109.38,39.28-32.59,85.21-64.67,131.78-86.09-7.07-2.63-21.46-1.16-29.81-1.54-44.73-2.06-87.77-13-134.23-16.38,7.92,10.62,17.73,21.2,28.62,28.75,36.59,25.35,72.31,51.85,111.28,67.74-18.77-48.83-35.13-94.66-53.9-143.48" transform="translate(-331.12 -96.83)"/><path class="cls-1" d="M1290.71,281.47c-24.61,14.91-32.82,44.69-40.35,70.64-8.52,29.35-14.68,59.31-20.29,89.33-2.82,15.14,13.34,24.32,25.07,14.6,39.16-32.42,82.06-62.15,128.75-83.75,5.36-2.48,7.89-9.57,7.17-15a15.23,15.23,0,0,0-10.75-12.47c-11.34-3.74-24-1.59-35.67-2.16-13.79-.69-28.53-2.36-41.26-4.17-30.33-4.31-60.52-9.81-91.1-12.12-10.65-.8-19.68,13.65-13,22.57,9.49,12.58,19.81,23.83,32.6,33.13,12.33,9,25,17.54,37.6,26.12,25,17,50.66,32.59,78.67,44.13,10.24,4.22,22.32-8.39,18.45-18.45-18.31-47.69-35.58-95.79-53.89-143.48-2.91-7.56-10.1-12.78-18.46-10.48-7.22,2-13.39,10.85-10.47,18.45,18.32,47.7,35.58,95.79,53.9,143.49l18.45-18.45c-23.69-9.76-47.94-25.12-70-40.06-11.63-7.89-23.11-16-34.65-24a124,124,0,0,1-26.33-25.51l-13,22.57c28.68,2.16,56.2,7.28,85,11.31,14.81,2.07,29.66,3.93,44.6,4.82,5.69.34,11.33.26,17,.2,3,0,5.94-.05,8.9.13.43,0,4.13.55,2,.15s2.13.64,2.54.77l-3.59-27.41c-48.93,22.64-93.41,54.15-134.82,88.44L1259,449.42c5.26-28.15,11-56.24,18.72-83.83,3.46-12.41,7-25,12-36.95-1,2.29.94-2,.94-2,.64-1.37,1.32-2.73,2-4.06,1.18-2.21,2.54-4.28,3.86-6.41,1.69-2.73-.71.53,1.22-1.67,1-1.11,1.94-2.19,3-3.22.36-.36,3.43-3.07,1.41-1.47a34.88,34.88,0,0,1,3.71-2.44,15.27,15.27,0,0,0,5.38-20.53c-4-6.92-13.56-9.59-20.52-5.38Z" transform="translate(-331.12 -96.83)"/><path class="cls-1" d="M2042.4,249.37c14.68,8.51,21.86,25.53,27.23,41.62,11.87,35.62,19.64,72.47,26.51,109.39-39.27-32.6-85.2-64.68-131.78-86.1,7.07-2.62,21.46-1.16,29.82-1.54,44.72-2.06,87.76-13,134.23-16.38-7.93,10.63-17.74,21.2-28.63,28.75-36.58,25.36-72.3,51.85-111.28,67.74,18.77-48.82,35.13-94.65,53.9-143.48" transform="translate(-331.12 -96.83)"/><path class="cls-1" d="M2034.83,262.32a35,35,0,0,1,3.71,2.45c-2-1.61,1.37,1.42,1.42,1.46.87.85,1.7,1.75,2.5,2.67.49.55,1,1.11,1.42,1.69-.7-.89-.75-.91-.14-.08a79.77,79.77,0,0,1,4.29,7q1.06,2,2,4.06c.14.3,1.65,3.69,1.09,2.39,1.61,3.76,4.11,11.24,5.78,16.44q3.21,10,6,20.11c7.72,27.59,13.45,55.68,18.71,83.83l25.07-14.59c-41.41-34.29-85.88-65.8-134.82-88.44l-3.58,27.42c1.08-.36,2.18-.55,3.26-.86-3.13.91.39,0,1.29-.06,3-.19,5.94-.17,8.91-.14,5.38.06,10.71.16,16.09-.14,15.25-.87,30.41-2.76,45.54-4.88,28.77-4,56.27-9.14,85-11.31l-13-22.57c-15.41,20.46-38.85,34.54-61,49.54s-46.28,30.3-70,40.06L2003,396.84c18.31-47.69,35.58-95.79,53.89-143.48,2.82-7.34-3.11-16.78-10.47-18.45-8.58-2-15.44,2.61-18.45,10.47-18.32,47.7-35.58,95.79-53.9,143.49-3.87,10.06,8.22,22.67,18.45,18.45,28-11.54,53.68-27.12,78.67-44.13,12.37-8.42,24.71-16.93,36.9-25.63,13.11-9.35,23.64-20.82,33.3-33.63,6.72-8.91-2.31-23.37-13-22.57-30.59,2.31-60.77,7.81-91.11,12.12-12.75,1.82-27.45,3.47-41.26,4.17-11.71.59-24.32-1.58-35.67,2.17-5.75,1.9-9.92,6.37-10.74,12.47-.73,5.45,1.79,12.46,7.16,14.94,46.69,21.6,89.59,51.33,128.75,83.75,11.72,9.71,27.9.57,25.07-14.59-5.61-30-11.77-60-20.28-89.34-7.53-25.94-15.75-55.73-40.36-70.63-6.93-4.2-16.48-1.53-20.52,5.38a15.22,15.22,0,0,0,5.38,20.52Z" transform="translate(-331.12 -96.83)"/><path class="cls-1" d="M2409.78,460.78c14.67,8.51,21.86,25.53,27.23,41.63,11.87,35.62,19.64,72.47,26.51,109.38-39.28-32.59-85.21-64.67-131.78-86.09,7.07-2.63,21.46-1.16,29.81-1.54,44.73-2.06,87.77-13,134.23-16.38-7.92,10.62-17.74,21.2-28.63,28.75-36.58,25.35-72.3,51.85-111.27,67.74,18.77-48.83,35.13-94.66,53.9-143.49" transform="translate(-331.12 -96.83)"/><path class="cls-1" d="M2402.21,473.74a36.49,36.49,0,0,1,3.71,2.44c-2-1.6,1.37,1.43,1.41,1.47.87.85,1.71,1.75,2.51,2.66.49.55,1,1.12,1.41,1.69-.7-.88-.74-.91-.13-.07a76,76,0,0,1,4.28,7c.72,1.33,1.39,2.69,2,4.06.14.3,1.65,3.68,1.1,2.38,1.6,3.77,4.11,11.24,5.78,16.45q3.21,10,6,20.1c7.72,27.6,13.46,55.69,18.72,83.84l25.07-14.6c-41.41-34.28-85.89-65.8-134.82-88.43l-3.59,27.41c1.08-.35,2.19-.54,3.27-.86-3.14.91.39,0,1.29-.06,3-.18,5.94-.17,8.9-.14,5.38.06,10.72.17,16.1-.14,15.25-.86,30.41-2.75,45.53-4.87,28.78-4,56.27-9.15,85-11.31l-13-22.57c-15.42,20.45-38.86,34.53-61,49.54s-46.28,30.3-70,40l18.45,18.46c18.32-47.7,35.58-95.79,53.9-143.49,2.82-7.34-3.11-16.77-10.48-18.45-8.57-1.95-15.43,2.62-18.45,10.48-18.32,47.69-35.58,95.79-53.89,143.48-3.87,10.06,8.21,22.67,18.45,18.45,28-11.54,53.68-27.12,78.67-44.13,12.37-8.42,24.71-16.93,36.89-25.62,13.11-9.36,23.65-20.82,33.3-33.63,6.73-8.92-2.31-23.38-12.95-22.57-30.58,2.31-60.77,7.81-91.1,12.12-12.75,1.81-27.45,3.47-41.26,4.16-11.72.59-24.32-1.57-35.67,2.17-5.75,1.9-9.93,6.37-10.75,12.47-.73,5.45,1.79,12.46,7.17,14.95,46.68,21.6,89.59,51.33,128.74,83.75,11.72,9.7,27.91.57,25.08-14.6-5.61-30-11.77-60-20.29-89.34-7.52-25.94-15.74-55.72-40.35-70.63-6.93-4.19-16.48-1.53-20.53,5.38a15.24,15.24,0,0,0,5.39,20.53Z" transform="translate(-331.12 -96.83)"/><path class="cls-1" d="M1699.91,111.85c-22,12.72-32.69,38.18-40.72,62.25-17.76,53.27-29.37,108.38-39.65,163.59C1678.28,288.94,1747,241,1816.63,208.93c-10.58-3.92-32.74-6.54-45.24-7.12-66.89-3.07-131.58-24.15-200.1-19.68,11.84,15.89,26.8,29.33,43.09,40.62,54.7,37.92,107.85,79.92,166.14,103.69-28.07-73-52.53-141.57-80.61-214.59" transform="translate(-331.12 -96.83)"/><path class="cls-1" d="M1692.34,98.89c-26.54,15.85-38.93,45-48.22,73.06-11.14,33.7-19.85,68.17-27.33,102.85-4.22,19.57-8,39.22-11.72,58.9-2.82,15.14,13.33,24.33,25.07,14.6,59.16-49,123.72-93.94,194.06-126.42,5.36-2.47,7.89-9.57,7.16-14.94-.82-6.16-5-10.43-10.74-12.47-12.77-4.55-27.06-5.86-40.47-7.05-15.57-1.38-31.12-2-46.65-4-33.25-4.18-68.71-11.29-103.08-14.75a365,365,0,0,0-59.13-1.53c-10.09.62-20.36,12.76-13,22.57a193.32,193.32,0,0,0,35.17,36.1c14.06,11,29,20.9,43.58,31.25,28.09,20,56.19,40.09,86,57.44a431.86,431.86,0,0,0,53.44,26.41c10.23,4.21,22.32-8.38,18.45-18.45-27.41-71.33-53.21-143.26-80.61-214.59-2.9-7.56-10.09-12.78-18.45-10.48-7.23,2-13.4,10.85-10.48,18.45,27.4,71.33,53.21,143.27,80.61,214.6L1784.51,312a391.45,391.45,0,0,1-41.61-20.71c-14.18-8-28-16.78-41.51-25.84-27.8-18.58-55-38.13-82.22-57.59-11.91-8.52-26.19-21.69-34.93-33.28l-13,22.57c34-2.1,67.55,1.93,100.35,7,33.95,5.3,67.72,10.72,102,12.77,3.33.19,6.66.48,10,.82,1.95.2,3.9.43,5.85.66,1.77.21,0,0-.27,0,1,.13,2,.28,3,.43,6.88,1,13.84,2.25,20.41,4.59L1809.06,196c-56.31,26-108.7,60.06-158,97.6q-21.42,16.32-42.18,33.5l25.07,14.6c6.22-33.32,12.89-66.57,21.13-99.46,4.15-16.58,8.7-33.07,13.78-49.39,2.28-7.32,4.61-14.63,7.19-21.85,1-2.86,2.12-5.69,3.21-8.52s.5-1.26.23-.63c.3-.71.61-1.4.91-2.09.72-1.62,1.46-3.23,2.24-4.82,1.64-3.38,3.41-6.7,5.36-9.91.9-1.49,1.83-2.95,2.81-4.38.43-.64,3.48-4.6,2.05-2.88a76.92,76.92,0,0,1,7-7.45c.57-.52,4.45-3.58,2.62-2.28,1.61-1.15,3.27-2.21,5-3.22a15,15,0,0,0-15.15-25.91Z" transform="translate(-331.12 -96.83)"/></svg>